HIERARCHY
ROOT Hips
{
	OFFSET 0.000000 0.000000 0.000000
	CHANNELS 6 Xposition Yposition Zposition Xrotation Yrotation Zrotation
	JOINT LeftUpLeg_virtual
	{
		OFFSET 0.000000 0.000000 0.000000
		CHANNELS 3 Xrotation Yrotation Zrotation
		JOINT LeftUpLeg
		{
			OFFSET 10.205400 -3.823500 0.155100
			CHANNELS 3 Xrotation Yrotation Zrotation
			JOINT LeftLeg
			{
				OFFSET 0.708757 -12.982077 0.567790
				CHANNELS 3 Xrotation Yrotation Zrotation
				JOINT LeftFoot
				{
					OFFSET -0.708756 -10.717838 -2.184338
					CHANNELS 3 Xrotation Yrotation Zrotation
					JOINT LeftToeBase
					{
						OFFSET 0.108149 -7.191104 7.560241
						CHANNELS 3 Xrotation Yrotation Zrotation
						JOINT LeftToe_End
						{
							OFFSET 0.070230 0.081724 4.490308
							CHANNELS 3 Xrotation Yrotation Zrotation
							End Site
							{
								OFFSET 0 0 0
							}
						}
					}
				}
			}
		}
	}
	JOINT RightUpLeg_virtual
	{
		OFFSET 0.000000 0.000000 0.000000
		CHANNELS 3 Xrotation Yrotation Zrotation
		JOINT RightUpLeg
		{
			OFFSET -10.205400 -3.823500 0.005500
			CHANNELS 3 Xrotation Yrotation Zrotation
			JOINT RightLeg
			{
				OFFSET -0.708756 -12.982134 0.610632
				CHANNELS 3 Xrotation Yrotation Zrotation
				JOINT RightFoot
				{
					OFFSET 0.708754 -10.717769 -1.945823
					CHANNELS 3 Xrotation Yrotation Zrotation
					JOINT RightToeBase
					{
						OFFSET -0.108140 -7.191069 7.372968
						CHANNELS 3 Xrotation Yrotation Zrotation
						JOINT RightToe_End
						{
							OFFSET -0.070227 0.081735 4.479403
							CHANNELS 3 Xrotation Yrotation Zrotation
							End Site
							{
								OFFSET 0 0 0
							}
						}
					}
				}
			}
		}
	}
	JOINT Spine_virtual
	{
		OFFSET 0.000000 0.000000 0.000000
		CHANNELS 3 Xrotation Yrotation Zrotation
		JOINT Spine
		{
			OFFSET 0.000000 6.876099 0.125700
			CHANNELS 3 Xrotation Yrotation Zrotation
			JOINT Spine1
			{
				OFFSET 0.000000 5.730043 0.104720
				CHANNELS 3 Xrotation Yrotation Zrotation
				JOINT Spine1_split
				{
					OFFSET 0.000000 5.730043 0.104720
					CHANNELS 3 Xrotation Yrotation Zrotation
					JOINT Spine2
					{
						OFFSET 0.000000 5.730043 0.104720
						CHANNELS 3 Xrotation Yrotation Zrotation
						JOINT Neck_virtual
						{
							OFFSET 0.000000 0.000000 0.000000
							CHANNELS 3 Xrotation Yrotation Zrotation
							JOINT Neck
							{
								OFFSET 0.000000 10.314075 0.188496
								CHANNELS 3 Xrotation Yrotation Zrotation
								JOINT Head
								{
									OFFSET 0.000000 7.643700 -2.377400
									CHANNELS 3 Xrotation Yrotation Zrotation
									JOINT HeadTop_End
									{
										OFFSET 0.000000 43.788605 -13.619600
										CHANNELS 3 Xrotation Yrotation Zrotation
										End Site
										{
											OFFSET 0 0 0
										}
									}
								}
							}
						}
						JOINT LeftShoulder_virtual
						{
							OFFSET 0.000000 0.000000 0.000000
							CHANNELS 3 Xrotation Yrotation Zrotation
							JOINT LeftShoulder
							{
								OFFSET 2.196100 4.412489 0.087492
								CHANNELS 3 Xrotation Yrotation Zrotation
								JOINT LeftShoulder_split
								{
									OFFSET 2.196100 4.412489 0.087492
									CHANNELS 3 Xrotation Yrotation Zrotation
									JOINT LeftArm
									{
										OFFSET 8.771219 -2.981674 -0.026999
										CHANNELS 3 Xrotation Yrotation Zrotation
										JOINT LeftForeArm
										{
											OFFSET 8.512804 0.000000 -0.000000
											CHANNELS 3 Xrotation Yrotation Zrotation
											JOINT LeftHand
											{
												OFFSET 18.484802 0.000000 -0.000000
												CHANNELS 3 Xrotation Yrotation Zrotation
												End Site
												{
													OFFSET 0 0 0
												}
											}
										}
									}
								}
							}
						}
						JOINT RightShoulder_virtual
						{
							OFFSET 0.000000 0.000000 0.000000
							CHANNELS 3 Xrotation Yrotation Zrotation
							JOINT RightShoulder
							{
								OFFSET -2.196100 4.412496 0.070690
								CHANNELS 3 Xrotation Yrotation Zrotation
								JOINT RightShoulder_split
								{
									OFFSET -2.196100 4.412496 0.070690
									CHANNELS 3 Xrotation Yrotation Zrotation
									JOINT RightArm
									{
										OFFSET -8.771282 -2.981682 -0.094208
										CHANNELS 3 Xrotation Yrotation Zrotation
										JOINT RightForeArm
										{
											OFFSET -8.494598 0.000000 0.000000
											CHANNELS 3 Xrotation Yrotation Zrotation
											JOINT RightHand
											{
												OFFSET -18.483803 0.000000 0.000001
												CHANNELS 3 Xrotation Yrotation Zrotation
												End Site
												{
													OFFSET 0 0 0
												}
											}
										}
									}
								}
							}
						}
					}
				}
			}
		}
	}
}
MOTION
Frames: 6
Frame Time: 0.03333333
-0.168078 44.422127 7.362901 0.000000 0.000000 0.000000 -88.371433 -7.541891 -0.620265 -6.255597 20.323617 15.784644 7.908031 -0.867028 3.976610 7.151460 29.959143 -21.989828 -4.725552 0.116235 1.898123 0.000000 0.000000 0.000000 -90.357365 -5.060586 0.548814 -7.711917 -19.000707 -19.558679 15.254720 -1.034281 -5.472193 14.237729 -34.348147 30.236752 -11.155458 1.406434 -3.905442 0.000000 0.000000 0.000000 -87.494402 -7.512931 -2.006119 1.613508 -0.587405 -0.602668 -1.211365 0.323854 -0.251367 0.612108 0.812912 -0.346577 0.000000 0.000000 0.000000 -1.100918 0.525404 -0.329610 -5.091670 3.979680 -8.412850 3.737890 8.010456 -11.195212 0.000000 0.000000 0.000000 -0.247438 0.511752 -0.089791 0.349871 -6.119661 -0.569587 -0.130506 1.436793 -2.966891 45.000729 -42.006691 -31.543589 4.637843 -86.263670 4.016520 0.000000 0.000000 0.000000 -0.171816 0.729568 -0.653566 0.340806 0.314259 2.300117 7.705390 7.673535 -0.803859 -4.542649 1.058130 81.332206 -179.379236 54.436888 -179.965390 0.000000 0.000000 0.000000 
-0.157363 44.423347 7.364568 0.000000 0.000000 0.000000 -88.376207 -7.530854 -0.605983 -6.259125 20.299882 15.785460 7.895235 -0.885025 3.959041 7.151750 29.947716 -21.979788 -4.722668 0.114673 1.900273 0.000000 0.000000 0.000000 -90.349626 -5.056299 0.557736 -7.722046 -18.994536 -19.575423 15.241605 -1.031915 -5.478151 14.249972 -34.344008 30.240738 -11.169392 1.397612 -3.900362 0.000000 0.000000 0.000000 -87.489355 -7.500248 -2.006661 1.618963 -0.583452 -0.586672 -1.207981 0.325970 -0.249198 0.632736 0.798252 -0.331346 0.000000 0.000000 0.000000 -1.104997 0.530989 -0.328197 -5.036154 4.039419 -8.454963 3.818206 8.115645 -11.192398 0.000000 0.000000 0.000000 -0.241023 0.512698 -0.100763 0.349457 -6.127623 -0.578814 -0.112030 1.492446 -2.929737 44.978394 -42.020717 -31.557953 4.664634 -86.263459 4.044151 0.000000 0.000000 0.000000 -0.158507 0.742863 -0.643327 0.351908 0.314728 2.308398 7.700506 7.658392 -0.840626 -4.507316 1.108517 81.281526 -179.406093 54.448882 -179.931157 0.000000 0.000000 0.000000 
-0.146720 44.424995 7.365458 0.000000 0.000000 0.000000 -88.376958 -7.522179 -0.586699 -6.254814 20.275118 15.778336 7.873207 -0.911592 3.941865 7.150835 29.933437 -21.959535 -4.711312 0.111668 1.897361 0.000000 0.000000 0.000000 -90.339087 -5.055813 0.569437 -7.742452 -19.002855 -19.602945 15.238552 -1.027202 -5.489880 14.237265 -34.349059 30.229365 -11.197471 1.391370 -3.892740 0.000000 0.000000 0.000000 -87.483617 -7.500184 -2.014094 1.627541 -0.584692 -0.559955 -1.207470 0.327688 -0.245023 0.644066 0.780895 -0.302818 0.000000 0.000000 0.000000 -1.111448 0.535642 -0.326338 -5.046560 4.079219 -8.443702 4.183707 8.237361 -11.376826 0.000000 0.000000 0.000000 -0.235337 0.509637 -0.108730 0.344223 -6.122507 -0.601310 -0.079786 1.552349 -2.868199 44.932092 -42.023842 -31.615911 4.552135 -86.262311 3.935720 0.000000 0.000000 0.000000 -0.146955 0.753333 -0.632735 0.364989 0.308086 2.344909 7.682302 7.647521 -0.871431 -4.497996 1.218945 81.194181 -179.427430 54.498984 -179.891159 0.000000 0.000000 0.000000 
-0.136776 44.426720 7.363981 0.000000 0.000000 0.000000 -88.373523 -7.517869 -0.565490 -6.246451 20.249706 15.766964 7.848930 -0.947697 3.927707 7.146357 29.916587 -21.936069 -4.693673 0.107683 1.889656 0.000000 0.000000 0.000000 -90.326151 -5.056226 0.584955 -7.775357 -19.025490 -19.638018 15.246721 -1.016930 -5.504997 14.209368 -34.357084 30.211586 -11.241072 1.387641 -3.882376 0.000000 0.000000 0.000000 -87.479273 -7.511413 -2.028814 1.636617 -0.591496 -0.526905 -1.210943 0.328783 -0.239310 0.643423 0.761548 -0.275353 0.000000 0.000000 0.000000 -1.121763 0.539947 -0.322425 -5.119520 4.099671 -8.394115 4.820412 8.363830 -11.740189 0.000000 0.000000 0.000000 -0.229627 0.502712 -0.113645 0.336561 -6.109824 -0.642545 -0.038678 1.605467 -2.782964 44.872400 -42.017162 -31.695124 4.297334 -86.241151 3.690093 0.000000 0.000000 0.000000 -0.137501 0.759762 -0.623539 0.379835 0.286915 2.398757 7.657401 7.651228 -0.898972 -4.506885 1.369817 81.084987 -179.432594 54.546888 -179.859235 0.000000 0.000000 0.000000 
-0.128359 44.428169 7.359961 0.000000 0.000000 0.000000 -88.371084 -7.521306 -0.547355 -6.237600 20.226398 15.754955 7.826414 -0.994596 3.917433 7.140299 29.894560 -21.919219 -4.674487 0.103174 1.878360 0.000000 0.000000 0.000000 -90.309772 -5.051949 0.608504 -7.813452 -19.063014 -19.675296 15.259396 -0.996038 -5.522858 14.173496 -34.363020 30.192708 -11.310073 1.387123 -3.870526 0.000000 0.000000 0.000000 -87.480004 -7.534552 -2.051401 1.643548 -0.604057 -0.492528 -1.216636 0.329458 -0.233304 0.646784 0.747575 -0.253513 0.000000 0.000000 0.000000 -1.133966 0.543447 -0.316518 -5.245003 4.107472 -8.326831 5.676091 8.485001 -12.261188 0.000000 0.000000 0.000000 -0.222195 0.493387 -0.116613 0.327278 -6.087913 -0.708760 -0.005574 1.640644 -2.683159 44.807919 -42.006848 -31.770799 3.928255 -86.190902 3.335877 0.000000 0.000000 0.000000 -0.129092 0.762970 -0.617114 0.393719 0.245936 2.455905 7.632071 7.669984 -0.919610 -4.526026 1.533495 80.976838 -179.416898 54.562768 -179.844454 0.000000 0.000000 0.000000 
-0.121838 44.428604 7.356850 0.000000 0.000000 0.000000 -88.374609 -7.532771 -0.535152 -6.229897 20.209338 15.745290 7.807712 -1.051142 3.909807 7.133813 29.867017 -21.913100 -4.657199 0.098261 1.864815 0.000000 0.000000 0.000000 -90.293912 -5.040704 0.639945 -7.851703 -19.114607 -19.709047 15.272457 -0.966978 -5.542159 14.135059 -34.367606 30.170151 -11.402814 1.389383 -3.857423 0.000000 0.000000 0.000000 -87.488228 -7.566168 -2.077533 1.645405 -0.620053 -0.463012 -1.222088 0.330316 -0.227195 0.650883 0.746074 -0.246628 0.000000 0.000000 0.000000 -1.146400 0.546461 -0.309139 -5.407214 4.112760 -8.263177 6.683473 8.607634 -12.903560 0.000000 0.000000 0.000000 -0.214021 0.483845 -0.117694 0.317881 -6.055563 -0.796771 0.008680 1.646223 -2.590424 44.739389 -42.003334 -31.823682 3.546593 -86.123290 2.972377 0.000000 0.000000 0.000000 -0.122186 0.763918 -0.614075 0.401992 0.181485 2.501230 7.618703 7.706209 -0.937229 -4.543867 1.684987 80.884705 -179.384154 54.542947 -179.848334 0.000000 0.000000 0.000000 
